# xmcd
#
# Track frame offsets: 
#        150
#        11657
#        25442
#        37924
#        50057
#        62596
#        75176
#        87290
#        99374
#        111458
#        124519
#        138229
#        151728
#        162309
#        173772
#        186264
#        198899
#        207962
#        219186
#        231878
#
# Disc length: 3268 seconds
#
# Revision: 1
# Processed by: cddbd v1.5.2PL0 Copyright (c) Steve Scherf et al.
# Submitted via: ExactAudioCopyFreeDBPlugin 1.0
#
DISCID=fd0cc214
DTITLE=Sonny Terry, Eddie Taylor - ABC Of The Blues - Vol. 44 Terry, T
DTITLE=aylor
DYEAR=2010
DGENRE=Blues
TTITLE0=Sonny Terry - Bye Bye Baby Blues
TTITLE1=Sonny Terry - I Don't Care How Long
TTITLE2=Sonny Terry - Blues And Worried Man
TTITLE3=Sonny Terry - Harmonica Blues
TTITLE4=Sonny Terry - Somebody's Been Talkin'
TTITLE5=Sonny Terry - Harmonica Stomp
TTITLE6=Sonny Terry - Twelve Gates To The City
TTITLE7=Sonny Terry - You Got To Have Your Dollar
TTITLE8=Sonny Terry - Don't Want No Skinny Woman
TTITLE9=Sonny Terry - Blowing The Blues
TTITLE10=Eddie Taylor - Bad Boy
TTITLE11=Eddie Taylor - Big Town Playboy
TTITLE12=Eddie Taylor - Find My Baby
TTITLE13=Eddie Taylor - Stroll Out West
TTITLE14=Eddie Taylor - E.T. Blues
TTITLE15=Eddie Taylor - Don't Knock At My Door
TTITLE16=Eddie Taylor - I'm Gonna Love You
TTITLE17=Eddie Taylor - Leave This Neighborhood
TTITLE18=Eddie Taylor - I'm Sitting Here
TTITLE19=Eddie Taylor - Ride'em On Down
EXTD=
EXTT0=
EXTT1=
EXTT2=
EXTT3=
EXTT4=
EXTT5=
EXTT6=
EXTT7=
EXTT8=
EXTT9=
EXTT10=
EXTT11=
EXTT12=
EXTT13=
EXTT14=
EXTT15=
EXTT16=
EXTT17=
EXTT18=
EXTT19=
PLAYORDER=
